<?xml version="1.0" encoding="UTF-8" standalone="no"?>
<svg
   xmlns:dc="http://purl.org/dc/elements/1.1/"
   xmlns:cc="http://creativecommons.org/ns#"
   xmlns:rdf="http://www.w3.org/1999/02/22-rdf-syntax-ns#"
   xmlns:svg="http://www.w3.org/2000/svg"
   xmlns="http://www.w3.org/2000/svg"
   viewBox="0 0 793.70135 748.34668"
   height="748.34668"
   width="793.70135"
   xml:space="preserve"
   id="svg2"
   version="1.1"><metadata
     id="metadata8"><rdf:RDF><cc:Work
         rdf:about=""><dc:format>image/svg+xml</dc:format><dc:type
           rdf:resource="http://purl.org/dc/dcmitype/StillImage" /></cc:Work></rdf:RDF></metadata><defs
     id="defs6"><clipPath
       id="clipPath18"
       clipPathUnits="userSpaceOnUse"><path
         id="path16"
         d="M 0,561.26 H 595.276 V 0 H 0 Z" /></clipPath><clipPath
       id="clipPath114"
       clipPathUnits="userSpaceOnUse"><path
         id="path112"
         d="M 0,561.26 H 595.276 V 0 H 0 Z" /></clipPath><clipPath
       id="clipPath134"
       clipPathUnits="userSpaceOnUse"><path
         id="path132"
         d="M 0,561.26 H 595.276 V 0 H 0 Z" /></clipPath></defs><g
     transform="matrix(1.3333333,0,0,-1.3333333,0,748.34667)"
     id="g10"><g
       id="g12"><g
         clip-path="url(#clipPath18)"
         id="g14"><g
           transform="translate(27.1745,38.0358)"
           id="g20"><path
             id="path22"
             style="fill:#1f6189;fill-opacity:1;fill-rule:nonzero;stroke:none"
             d="m 0,0 h -9.101 c -0.107,-0.552 -0.236,-1.104 -0.387,-1.655 -0.151,-0.553 -0.258,-1.105 -0.323,-1.657 -0.043,-0.336 0.054,-0.66 0.291,-0.971 0.236,-0.313 0.505,-0.492 0.807,-0.54 1.828,-0.313 3.668,-0.439 5.518,-0.378 1.85,0.059 3.668,0.281 5.454,0.666 l -1.711,-6.66 c -4.475,-0.769 -8.971,-0.876 -13.489,-0.325 -1.011,0.121 -1.834,0.492 -2.468,1.117 -0.635,0.624 -1.114,1.38 -1.436,2.267 -0.323,0.888 -0.512,1.848 -0.565,2.88 -0.054,1.032 -0.006,2.004 0.145,2.916 0.301,1.824 0.694,3.618 1.178,5.382 0.484,1.765 1.059,3.486 1.726,5.166 -0.301,-0.12 -0.618,-0.216 -0.952,-0.287 -0.334,-0.072 -0.678,-0.169 -1.033,-0.288 -0.355,-0.121 -0.72,-0.295 -1.096,-0.523 -0.377,-0.228 -0.759,-0.57 -1.146,-1.026 -0.065,-0.071 -0.118,-0.107 -0.161,-0.107 -0.108,-0.073 -0.226,-0.079 -0.355,-0.019 -0.129,0.06 -0.162,0.162 -0.098,0.307 0.646,1.391 1.383,2.664 2.211,3.815 0.828,1.152 1.759,2.143 2.792,2.971 1.032,0.828 2.178,1.47 3.436,1.926 1.259,0.455 2.652,0.683 4.18,0.683 H 7.293 L 5.551,9.217 H -4.712 C -5.164,9.217 -5.535,9.06 -5.825,8.748 -6.116,8.437 -6.363,8.064 -6.567,7.633 -6.772,7.2 -6.949,6.75 -7.1,6.282 -7.251,5.814 -7.423,5.424 -7.616,5.112 c 0.193,0.024 0.425,0.042 0.694,0.054 0.268,0.013 0.704,0.019 1.307,0.019 0.623,0 1.489,-0.006 2.597,-0.019 C -1.91,5.154 -0.431,5.148 1.42,5.148 Z" /></g><g
           transform="translate(51.9585,38.0358)"
           id="g24"><path
             id="path26"
             style="fill:#1f6189;fill-opacity:1;fill-rule:nonzero;stroke:none"
             d="m 0,0 4.259,15.553 h 6.907 L 3.97,-11.268 h -8.585 l -3.388,18.649 -5.034,-18.649 h -7.132 l 7.228,26.821 h 7.229 c 0.387,0 0.775,-0.067 1.162,-0.199 0.387,-0.131 0.742,-0.324 1.065,-0.576 0.323,-0.252 0.597,-0.546 0.822,-0.882 0.227,-0.336 0.383,-0.719 0.468,-1.152 z" /></g><g
           transform="translate(71.1434,33.6441)"
           id="g28"><path
             id="path30"
             style="fill:#1f6189;fill-opacity:1;fill-rule:nonzero;stroke:none"
             d="m 0,0 c 0.226,-0.384 0.501,-0.601 0.823,-0.648 0.731,-0.121 1.473,-0.168 2.227,-0.144 0.753,0.023 1.506,0.036 2.258,0.036 l 1.807,6.12 h 7.197 L 10.795,-6.876 H 9.342 c -4.281,-0.72 -8.594,-0.804 -12.94,-0.252 -1.012,0.12 -1.835,0.491 -2.469,1.116 -0.635,0.624 -1.113,1.38 -1.436,2.268 -0.323,0.888 -0.517,1.848 -0.58,2.88 -0.065,1.032 -0.023,2.004 0.128,2.916 0.388,2.376 0.936,4.685 1.646,6.93 0.71,2.244 1.559,4.422 2.549,6.534 0.301,0.624 0.683,1.212 1.146,1.764 0.462,0.552 0.984,1.032 1.565,1.44 0.582,0.408 1.194,0.732 1.839,0.972 0.646,0.24 1.302,0.36 1.969,0.36 H 17.023 L 15.28,13.608 H 4.598 C 4.275,13.608 3.974,13.506 3.695,13.302 3.415,13.098 3.2,12.84 3.05,12.528 2.146,10.775 1.415,8.934 0.855,7.002 0.296,5.07 -0.081,3.096 -0.275,1.08 -0.318,0.743 -0.226,0.384 0,0" /></g><g
           transform="translate(94.5885,33.9322)"
           id="g32"><path
             id="path34"
             style="fill:#1f6189;fill-opacity:1;fill-rule:nonzero;stroke:none"
             d="M 0,0 C 0.279,-0.384 0.57,-0.612 0.871,-0.684 2.7,-0.996 4.507,-1.08 6.292,-0.937 c 1.786,0.145 3.572,0.42 5.358,0.829 l -1.711,-6.66 c -2.388,-0.456 -4.68,-0.72 -6.873,-0.793 -2.195,-0.071 -4.4,0.073 -6.616,0.433 -1.893,0.264 -3.19,1.182 -3.889,2.754 -0.699,1.571 -0.725,3.726 -0.081,6.462 0.022,0.144 0.055,0.311 0.097,0.504 0.043,0.192 0.119,0.498 0.226,0.918 0.108,0.42 0.253,1.002 0.436,1.746 0.183,0.744 0.441,1.746 0.775,3.006 0.333,1.259 0.758,2.82 1.275,4.68 0.516,1.86 1.139,4.11 1.871,6.75 H 4.356 L 0.291,4.68 C 0.182,4.056 0.06,3.456 -0.081,2.88 -0.221,2.304 -0.312,1.704 -0.355,1.08 -0.398,0.743 -0.28,0.384 0,0" /></g><g
           transform="translate(113.9183,53.5885)"
           id="g36"><path
             id="path38"
             style="fill:#1f6189;fill-opacity:1;fill-rule:nonzero;stroke:none"
             d="M 0,0 H 7.197 L -0.064,-26.82 H -7.358 Z" /></g><g
           transform="translate(120.9854,33.068)"
           id="g40"><path
             id="path42"
             style="fill:#1f6189;fill-opacity:1;fill-rule:nonzero;stroke:none"
             d="m 0,0 h 7.649 1.839 c 0.646,0 1.258,0.042 1.84,0.126 0.581,0.084 1.085,0.246 1.516,0.486 0.431,0.24 0.721,0.613 0.872,1.117 0.171,0.623 0.187,1.055 0.048,1.295 -0.14,0.24 -0.435,0.492 -0.887,0.756 C 12.489,3.756 12.016,3.744 11.457,3.744 10.897,3.744 10.3,3.762 9.666,3.798 9.031,3.834 8.385,3.894 7.73,3.979 7.073,4.062 6.471,4.194 5.922,4.374 5.373,4.554 4.895,4.775 4.486,5.04 4.078,5.304 3.798,5.64 3.647,6.048 3.474,6.48 3.303,6.96 3.13,7.488 2.959,8.016 2.824,8.58 2.728,9.181 2.631,9.78 2.598,10.416 2.631,11.088 2.663,11.76 2.786,12.443 3.002,13.141 2.399,12.876 1.856,12.569 1.373,12.223 0.888,11.874 0.485,11.472 0.162,11.017 0.097,10.944 0.044,10.908 0,10.908 -0.107,10.836 -0.226,10.83 -0.355,10.891 c -0.128,0.059 -0.172,0.161 -0.128,0.305 0.709,1.512 1.42,2.856 2.129,4.033 0.711,1.175 1.528,2.165 2.453,2.969 0.924,0.804 2.022,1.416 3.291,1.836 1.269,0.42 2.84,0.617 4.712,0.594 h 11.811 l -1.387,-6.48 H 12.166 C 11.413,14.052 10.763,13.884 10.214,13.645 9.666,13.404 9.284,13.008 9.069,12.456 8.831,11.856 8.784,11.358 8.924,10.962 9.063,10.566 9.337,10.26 9.747,10.044 9.918,9.948 10.09,9.882 10.263,9.847 10.435,9.811 10.639,9.786 10.876,9.774 11.112,9.762 11.392,9.756 11.715,9.756 h 1.162 c 1.914,0 3.388,-0.168 4.421,-0.504 C 18.331,8.916 19.105,8.34 19.621,7.524 20.029,6.899 20.255,6.054 20.299,4.986 20.342,3.918 20.18,2.809 19.815,1.656 19.384,0.192 18.809,-1.158 18.088,-2.394 17.367,-3.63 16.395,-4.572 15.167,-5.22 14.414,-5.628 13.425,-5.91 12.199,-6.065 10.972,-6.223 9.391,-6.3 7.455,-6.3 h -8.842 z" /></g><g
           transform="translate(159.9365,40.1598)"
           id="g44"><path
             id="path46"
             style="fill:#1f6189;fill-opacity:1;fill-rule:nonzero;stroke:none"
             d="m 0,0 h -5.26 l -3.646,-13.392 h -7.262 l 3.582,13.104 c -1.139,-0.264 -2.129,-0.624 -2.968,-1.079 -0.84,-0.457 -1.528,-1.032 -2.065,-1.729 -0.108,-0.168 -0.243,-0.228 -0.405,-0.179 -0.161,0.047 -0.219,0.155 -0.177,0.324 0.517,1.079 1.017,2.069 1.501,2.97 0.484,0.899 1.001,1.697 1.549,2.393 0.548,0.696 1.151,1.284 1.807,1.765 0.657,0.479 1.415,0.828 2.275,1.044 l 2.26,8.208 h 7.196 L -3.711,5.688 h 5.26 l 2.13,7.777 h 7.229 l -7.293,-26.82 h -7.294 z" /></g><g
           transform="translate(194.0282,33.5895)"
           id="g48"><path
             id="path50"
             style="fill:#1f6189;fill-opacity:1;fill-rule:nonzero;stroke:none"
             d="M 0,0 C 0.279,-0.384 0.57,-0.612 0.871,-0.684 2.7,-0.996 4.507,-1.08 6.292,-0.937 c 1.786,0.145 3.572,0.42 5.358,0.829 L 9.939,-6.768 C 7.551,-7.224 5.26,-7.488 3.066,-7.561 c -2.195,-0.071 -4.4,0.073 -6.616,0.433 -1.893,0.264 -3.19,1.182 -3.888,2.754 -0.7,1.571 -0.727,3.726 -0.081,6.462 0.021,0.144 0.054,0.311 0.096,0.504 0.043,0.192 0.119,0.498 0.226,0.918 0.108,0.42 0.253,1.002 0.436,1.746 0.182,0.744 0.441,1.746 0.775,3.006 0.333,1.259 0.758,2.82 1.275,4.68 0.516,1.86 1.139,4.11 1.871,6.75 H 4.357 L 0.291,4.68 C 0.182,4.056 0.059,3.456 -0.081,2.88 -0.221,2.304 -0.313,1.704 -0.355,1.08 -0.398,0.743 -0.28,0.384 0,0" /></g><g
           transform="translate(224.0073,36.9733)"
           id="g52"><path
             id="path54"
             style="fill:#1f6189;fill-opacity:1;fill-rule:nonzero;stroke:none"
             d="M 0,0 V 10.116 L -5.067,0 Z m -7.519,-4.859 -2.904,-5.689 h -7.584 l 11.682,21.744 c 0.666,1.224 1.318,2.178 1.952,2.863 0.635,0.683 1.222,1.193 1.759,1.529 0.538,0.336 1.001,0.54 1.388,0.612 0.387,0.072 0.656,0.109 0.807,0.109 h 6.971 v -26.857 h -6.681 v 5.689 z" /></g><g
           transform="translate(253.1801,37.693)"
           id="g56"><path
             id="path58"
             style="fill:#1f6189;fill-opacity:1;fill-rule:nonzero;stroke:none"
             d="m 0,0 4.26,15.553 h 6.906 L 3.969,-11.268 h -8.584 l -3.388,18.649 -5.034,-18.649 h -7.132 l 7.229,26.821 h 7.228 c 0.387,0 0.775,-0.067 1.162,-0.199 0.387,-0.131 0.742,-0.324 1.065,-0.576 0.322,-0.252 0.597,-0.546 0.823,-0.882 0.226,-0.336 0.382,-0.719 0.467,-1.152 z" /></g><g
           transform="translate(272.3654,33.3014)"
           id="g60"><path
             id="path62"
             style="fill:#1f6189;fill-opacity:1;fill-rule:nonzero;stroke:none"
             d="m 0,0 c 0.226,-0.384 0.501,-0.601 0.823,-0.648 0.732,-0.121 1.473,-0.168 2.227,-0.144 0.753,0.023 1.506,0.036 2.258,0.036 l 1.808,6.12 h 7.197 L 10.795,-6.876 H 9.342 c -4.28,-0.72 -8.594,-0.804 -12.94,-0.252 -1.011,0.12 -1.834,0.491 -2.469,1.116 -0.634,0.624 -1.113,1.38 -1.436,2.268 -0.322,0.888 -0.516,1.848 -0.58,2.88 -0.065,1.032 -0.022,2.004 0.128,2.916 0.388,2.376 0.936,4.685 1.646,6.93 0.71,2.244 1.56,4.422 2.55,6.534 0.301,0.624 0.683,1.212 1.145,1.764 0.463,0.552 0.985,1.032 1.565,1.44 0.582,0.408 1.194,0.732 1.84,0.972 0.646,0.24 1.301,0.36 1.968,0.36 H 17.023 L 15.28,13.608 H 4.598 C 4.276,13.608 3.974,13.506 3.695,13.302 3.416,13.098 3.2,12.84 3.05,12.528 2.146,10.775 1.415,8.934 0.855,7.002 0.296,5.07 -0.081,3.096 -0.274,1.08 -0.318,0.743 -0.226,0.384 0,0" /></g><g
           transform="translate(300.1989,53.3531)"
           id="g64"><path
             id="path66"
             style="fill:#1f6189;fill-opacity:1;fill-rule:nonzero;stroke:none"
             d="m 0,0 -5.196,-19.08 c -0.15,-0.481 -0.155,-0.888 -0.015,-1.224 0.139,-0.336 0.365,-0.618 0.677,-0.845 0.312,-0.229 0.688,-0.403 1.13,-0.523 0.441,-0.12 0.898,-0.216 1.371,-0.288 0.495,0.048 0.968,0.12 1.42,0.216 0.452,0.096 0.882,0.246 1.291,0.45 0.408,0.204 0.774,0.474 1.097,0.811 0.323,0.336 0.603,0.767 0.839,1.296 L 7.842,0 c 0.022,0.023 0.065,0.036 0.129,0.036 h 7.261 l -5.97,-21.924 c -0.645,-1.32 -1.49,-2.346 -2.533,-3.078 -1.044,-0.732 -2.162,-1.272 -3.356,-1.62 -1.194,-0.348 -2.4,-0.558 -3.615,-0.63 -1.216,-0.072 -2.319,-0.108 -3.308,-0.108 -0.731,0 -1.484,0.018 -2.258,0.054 -0.775,0.037 -1.517,0.132 -2.227,0.289 -0.71,0.155 -1.371,0.383 -1.985,0.683 -0.613,0.3 -1.129,0.708 -1.548,1.224 -0.421,0.516 -0.717,1.152 -0.888,1.908 -0.173,0.756 -0.173,1.674 0,2.754 L -6.841,0 Z" /></g><g
           transform="translate(328.5331,36.9733)"
           id="g68"><path
             id="path70"
             style="fill:#1f6189;fill-opacity:1;fill-rule:nonzero;stroke:none"
             d="M 0,0 V 10.116 L -5.067,0 Z m -7.519,-4.859 -2.904,-5.689 h -7.584 l 11.682,21.744 c 0.666,1.224 1.318,2.178 1.952,2.863 0.635,0.683 1.222,1.193 1.759,1.529 0.538,0.336 1.001,0.54 1.388,0.612 0.387,0.072 0.656,0.109 0.807,0.109 h 6.971 v -26.857 h -6.681 v 5.689 z" /></g><g
           transform="translate(347.2982,33.3014)"
           id="g72"><path
             id="path74"
             style="fill:#1f6189;fill-opacity:1;fill-rule:nonzero;stroke:none"
             d="m 0,0 c 0.226,-0.384 0.501,-0.601 0.823,-0.648 0.732,-0.121 1.473,-0.168 2.227,-0.144 0.753,0.023 1.506,0.036 2.258,0.036 l 1.808,6.12 h 7.197 L 10.795,-6.876 H 9.342 c -4.28,-0.72 -8.594,-0.804 -12.94,-0.252 -1.011,0.12 -1.834,0.491 -2.469,1.116 -0.634,0.624 -1.113,1.38 -1.436,2.268 -0.322,0.888 -0.516,1.848 -0.58,2.88 -0.065,1.032 -0.022,2.004 0.128,2.916 0.388,2.376 0.936,4.685 1.646,6.93 0.71,2.244 1.56,4.422 2.55,6.534 0.301,0.624 0.683,1.212 1.145,1.764 0.463,0.552 0.985,1.032 1.565,1.44 0.582,0.408 1.194,0.732 1.84,0.972 0.646,0.24 1.301,0.36 1.968,0.36 H 17.023 L 15.28,13.608 H 4.598 C 4.276,13.608 3.974,13.506 3.695,13.302 3.416,13.098 3.2,12.84 3.05,12.528 2.146,10.775 1.415,8.934 0.855,7.002 0.296,5.07 -0.081,3.096 -0.274,1.08 -0.318,0.743 -0.226,0.384 0,0" /></g><g
           transform="translate(382.2636,37.693)"
           id="g76"><path
             id="path78"
             style="fill:#1f6189;fill-opacity:1;fill-rule:nonzero;stroke:none"
             d="m 0,0 h -9.1 c -0.108,-0.552 -0.237,-1.104 -0.388,-1.655 -0.15,-0.553 -0.258,-1.105 -0.322,-1.657 -0.044,-0.336 0.054,-0.66 0.29,-0.971 0.237,-0.313 0.506,-0.492 0.807,-0.54 1.829,-0.313 3.668,-0.439 5.519,-0.378 1.849,0.059 3.668,0.281 5.453,0.666 l -1.71,-6.66 c -4.475,-0.769 -8.971,-0.876 -13.489,-0.325 -1.012,0.121 -1.835,0.492 -2.469,1.117 -0.635,0.624 -1.113,1.38 -1.436,2.267 -0.323,0.888 -0.512,1.848 -0.565,2.88 -0.053,1.032 -0.005,2.004 0.145,2.916 0.301,1.824 0.695,3.618 1.179,5.382 0.484,1.765 1.059,3.486 1.726,5.166 -0.302,-0.12 -0.619,-0.216 -0.953,-0.287 -0.333,-0.072 -0.677,-0.169 -1.032,-0.288 -0.355,-0.121 -0.721,-0.295 -1.097,-0.523 -0.377,-0.228 -0.759,-0.57 -1.145,-1.026 -0.065,-0.071 -0.119,-0.107 -0.162,-0.107 -0.108,-0.073 -0.226,-0.079 -0.355,-0.019 -0.129,0.06 -0.161,0.162 -0.097,0.307 0.646,1.391 1.382,2.664 2.21,3.815 0.828,1.152 1.76,2.143 2.792,2.971 1.033,0.828 2.178,1.47 3.437,1.926 1.259,0.455 2.651,0.683 4.179,0.683 H 7.294 L 5.551,9.217 H -4.711 c -0.431,0 -0.786,-0.151 -1.065,-0.45 C -6.056,8.466 -6.298,8.101 -6.503,7.668 -6.707,7.236 -6.889,6.786 -7.051,6.318 -7.212,5.851 -7.401,5.448 -7.616,5.112 c 0.194,0.024 0.425,0.042 0.694,0.054 0.269,0.013 0.705,0.019 1.307,0.019 0.623,0 1.489,-0.006 2.598,-0.019 1.108,-0.012 2.586,-0.018 4.437,-0.018 z" /></g><g
           transform="translate(416.5462,39.565)"
           id="g80"><path
             id="path82"
             style="fill:#1f6189;fill-opacity:1;fill-rule:nonzero;stroke:none"
             d="M 0,0 C 0.602,0 1.097,0.048 1.485,0.145 1.872,0.24 2.2,0.372 2.469,0.54 2.737,0.708 2.963,0.906 3.146,1.135 3.329,1.362 3.517,1.596 3.711,1.836 4.205,2.436 4.587,3.108 4.857,3.853 5.125,4.596 5.26,5.388 5.26,6.229 5.26,6.517 5.212,6.816 5.115,7.128 5.018,7.44 4.884,7.723 4.711,7.975 4.539,8.227 4.335,8.43 4.099,8.586 3.861,8.742 3.593,8.82 3.292,8.82 H -1.194 L -3.615,0 Z M -5.067,-5.508 -7.164,-13.14 H -14.36 L -7.1,13.681 H 5.131 c 1.033,0 2.027,-0.169 2.985,-0.504 0.958,-0.337 1.801,-0.913 2.533,-1.729 0.43,-0.504 0.764,-1.092 1.001,-1.763 C 11.886,9.012 12.004,8.316 12.004,7.597 12.004,6.18 11.821,4.788 11.456,3.42 11.09,2.053 10.564,0.769 9.875,-0.432 9.488,-1.08 9.057,-1.71 8.584,-2.321 8.111,-2.934 7.594,-3.474 7.035,-3.941 6.475,-4.409 5.878,-4.788 5.244,-5.075 4.609,-5.363 3.948,-5.508 3.259,-5.508 Z" /></g><g
           transform="translate(441.3306,39.565)"
           id="g84"><path
             id="path86"
             style="fill:#1f6189;fill-opacity:1;fill-rule:nonzero;stroke:none"
             d="M 0,0 C 0.601,0 1.102,0.048 1.5,0.145 1.898,0.24 2.231,0.372 2.501,0.54 2.77,0.708 2.996,0.906 3.179,1.135 3.361,1.362 3.55,1.596 3.743,1.836 4.238,2.436 4.62,3.108 4.889,3.853 5.158,4.596 5.292,5.388 5.292,6.229 5.292,6.517 5.244,6.816 5.147,7.128 5.05,7.44 4.915,7.723 4.744,7.975 4.571,8.227 4.361,8.43 4.114,8.586 3.867,8.742 3.593,8.82 3.292,8.82 H -1.162 L -3.55,0 Z M -0.581,-5.508 H -5.034 L -7.1,-13.14 h -6.97 l 7.26,26.821 H 5.357 c 0.817,0 1.635,-0.121 2.452,-0.361 0.818,-0.24 1.549,-0.612 2.195,-1.116 0.645,-0.504 1.172,-1.14 1.581,-1.908 C 11.993,9.528 12.198,8.628 12.198,7.597 12.198,6.18 12.021,4.788 11.666,3.42 11.311,2.053 10.778,0.769 10.068,-0.432 9.573,-1.296 8.987,-2.118 8.309,-2.897 7.632,-3.678 6.884,-4.308 6.067,-4.788 L 8.519,-13.14 H 1.742 Z" /></g><g
           transform="translate(470.3739,39.691)"
           id="g88"><path
             id="path90"
             style="fill:#1f6189;fill-opacity:1;fill-rule:nonzero;stroke:none"
             d="M 0,0 C 0.581,2.004 1.054,4.051 1.42,6.139 1.528,6.69 1.473,7.128 1.259,7.452 1.043,7.776 0.748,8.016 0.371,8.173 -0.005,8.328 -0.419,8.43 -0.871,8.479 -1.323,8.526 -1.711,8.551 -2.033,8.551 -2.399,8.551 -2.797,8.526 -3.227,8.479 -3.657,8.43 -4.072,8.328 -4.469,8.173 -4.868,8.016 -5.228,7.8 -5.55,7.524 -5.873,7.248 -6.11,6.882 -6.26,6.427 -6.906,4.555 -7.508,2.622 -8.068,0.631 -8.627,-1.362 -9.1,-3.378 -9.488,-5.418 c -0.107,-0.48 -0.113,-0.906 -0.015,-1.277 0.096,-0.373 0.262,-0.685 0.499,-0.937 0.237,-0.252 0.538,-0.437 0.904,-0.557 0.366,-0.121 0.763,-0.157 1.194,-0.109 0.409,0 0.876,0.019 1.404,0.055 0.527,0.035 1.033,0.126 1.516,0.269 0.484,0.144 0.909,0.372 1.276,0.684 0.365,0.312 0.601,0.744 0.71,1.297 0.753,1.991 1.42,3.989 2,5.993 M 7.455,-0.359 C 6.81,-3.012 5.981,-5.634 4.97,-8.226 c -0.538,-1.32 -1.334,-2.4 -2.388,-3.24 -1.054,-0.84 -2.206,-1.38 -3.453,-1.62 -1.012,-0.191 -2.017,-0.336 -3.018,-0.432 -1,-0.095 -2.006,-0.144 -3.017,-0.144 -0.731,0 -1.495,0.018 -2.291,0.055 -0.797,0.036 -1.581,0.131 -2.356,0.288 -0.774,0.155 -1.5,0.383 -2.178,0.683 -0.678,0.3 -1.264,0.708 -1.759,1.224 -0.495,0.516 -0.866,1.152 -1.113,1.908 -0.248,0.756 -0.328,1.674 -0.242,2.754 0.107,1.248 0.296,2.538 0.564,3.87 0.269,1.332 0.582,2.658 0.936,3.979 0.355,1.319 0.737,2.609 1.146,3.87 0.409,1.26 0.818,2.441 1.226,3.546 0.215,0.599 0.576,1.211 1.082,1.836 0.505,0.624 1.204,1.193 2.097,1.71 0.892,0.515 2.017,0.935 3.372,1.259 1.356,0.325 2.99,0.487 4.906,0.487 0.946,0 1.973,-0.025 3.081,-0.073 1.108,-0.048 2.162,-0.228 3.163,-0.54 C 5.729,12.882 6.615,12.385 7.39,11.7 8.165,11.017 8.692,10.026 8.971,8.73 V 7.759 C 8.605,4.998 8.1,2.292 7.455,-0.359" /></g><g
           transform="translate(487.4294,33.3014)"
           id="g92"><path
             id="path94"
             style="fill:#1f6189;fill-opacity:1;fill-rule:nonzero;stroke:none"
             d="m 0,0 c 0.226,-0.384 0.501,-0.601 0.823,-0.648 0.732,-0.121 1.473,-0.168 2.227,-0.144 0.753,0.023 1.506,0.036 2.258,0.036 l 1.808,6.12 h 7.197 L 10.795,-6.876 H 9.342 c -4.28,-0.72 -8.594,-0.804 -12.94,-0.252 -1.011,0.12 -1.834,0.491 -2.469,1.116 -0.634,0.624 -1.113,1.38 -1.436,2.268 -0.322,0.888 -0.516,1.848 -0.58,2.88 -0.065,1.032 -0.022,2.004 0.128,2.916 0.388,2.376 0.936,4.685 1.646,6.93 0.71,2.244 1.56,4.422 2.55,6.534 0.301,0.624 0.683,1.212 1.145,1.764 0.463,0.552 0.985,1.032 1.565,1.44 0.582,0.408 1.194,0.732 1.84,0.972 0.646,0.24 1.301,0.36 1.968,0.36 H 17.023 L 15.28,13.608 H 4.599 C 4.276,13.608 3.974,13.506 3.695,13.302 3.416,13.098 3.201,12.84 3.05,12.528 2.147,10.775 1.415,8.934 0.855,7.002 0.296,5.07 -0.081,3.096 -0.274,1.08 -0.318,0.743 -0.226,0.384 0,0" /></g><g
           transform="translate(516.0699,39.565)"
           id="g96"><path
             id="path98"
             style="fill:#1f6189;fill-opacity:1;fill-rule:nonzero;stroke:none"
             d="M 0,0 C 0.602,0 1.102,0.048 1.5,0.145 1.899,0.24 2.231,0.372 2.501,0.54 2.77,0.708 2.996,0.906 3.179,1.135 3.362,1.362 3.55,1.596 3.743,1.836 4.238,2.436 4.62,3.108 4.889,3.853 5.158,4.596 5.293,5.388 5.293,6.229 5.293,6.517 5.244,6.816 5.147,7.128 5.05,7.44 4.915,7.723 4.744,7.975 4.571,8.227 4.361,8.43 4.114,8.586 3.867,8.742 3.593,8.82 3.292,8.82 H -1.162 L -3.55,0 Z M -0.581,-5.508 H -5.034 L -7.1,-13.14 h -6.97 l 7.261,26.821 H 5.357 c 0.817,0 1.635,-0.121 2.452,-0.361 0.818,-0.24 1.55,-0.612 2.195,-1.116 0.645,-0.504 1.172,-1.14 1.581,-1.908 C 11.994,9.528 12.199,8.628 12.199,7.597 12.199,6.18 12.021,4.788 11.666,3.42 11.311,2.053 10.779,0.769 10.069,-0.432 9.573,-1.296 8.988,-2.118 8.309,-2.897 7.632,-3.678 6.884,-4.308 6.067,-4.788 L 8.519,-13.14 H 1.743 Z" /></g><g
           transform="translate(545.3715,36.9733)"
           id="g100"><path
             id="path102"
             style="fill:#1f6189;fill-opacity:1;fill-rule:nonzero;stroke:none"
             d="M 0,0 V 10.116 L -5.067,0 Z m -7.519,-4.859 -2.904,-5.689 h -7.584 l 11.682,21.744 c 0.666,1.224 1.318,2.178 1.952,2.863 0.635,0.683 1.222,1.193 1.759,1.529 0.538,0.336 1.001,0.54 1.388,0.612 0.387,0.072 0.656,0.109 0.807,0.109 h 6.971 v -26.857 h -6.681 v 5.689 z" /></g><g
           transform="translate(570.317,32.2574)"
           id="g104"><path
             id="path106"
             style="fill:#1f6189;fill-opacity:1;fill-rule:nonzero;stroke:none"
             d="M 0,0 H -1.582 L -3.776,12.816 -8.81,-5.832 h -7.132 l 7.229,26.82 h 7.228 c 0.387,0 0.775,-0.066 1.162,-0.198 0.388,-0.132 0.742,-0.324 1.065,-0.576 0.323,-0.252 0.597,-0.546 0.823,-0.882 0.226,-0.337 0.382,-0.72 0.468,-1.152 l 1.065,-6.156 4.614,6.48 c 0.56,0.767 1.237,1.374 2.034,1.818 0.796,0.444 1.613,0.666 2.452,0.666 h 6.487 L 11.488,-5.832 H 4.26 l 4.969,18.324 z" /></g></g></g><g
       id="g108"><g
         clip-path="url(#clipPath114)"
         id="g110"><g
           transform="translate(194.9049,142.9127)"
           id="g116"><path
             id="path118"
             style="fill:#1f6189;fill-opacity:1;fill-rule:nonzero;stroke:none"
             d="m 0,0 h -31.985 c -0.38,-1.74 -0.833,-3.479 -1.362,-5.217 -0.53,-1.741 -0.907,-3.479 -1.134,-5.218 -0.153,-1.06 0.188,-2.081 1.021,-3.062 0.831,-0.983 1.775,-1.551 2.835,-1.701 6.427,-0.985 12.892,-1.381 19.396,-1.192 6.502,0.188 12.892,0.888 19.169,2.099 L 1.929,-35.275 c -15.73,-2.419 -31.533,-2.759 -47.412,-1.021 -3.556,0.379 -6.448,1.549 -8.677,3.517 -2.232,1.965 -3.914,4.346 -5.048,7.145 -1.134,2.797 -1.797,5.822 -1.985,9.074 -0.19,3.25 -0.02,6.313 0.51,9.188 1.059,5.745 2.439,11.399 4.14,16.957 1.702,5.558 3.724,10.982 6.068,16.276 -1.059,-0.379 -2.173,-0.68 -3.345,-0.907 -1.173,-0.226 -2.382,-0.53 -3.63,-0.907 -1.247,-0.38 -2.534,-0.927 -3.857,-1.645 -1.323,-0.719 -2.665,-1.798 -4.026,-3.233 -0.227,-0.227 -0.416,-0.34 -0.567,-0.34 -0.379,-0.226 -0.794,-0.246 -1.247,-0.057 -0.455,0.188 -0.568,0.511 -0.341,0.964 2.268,4.385 4.858,8.394 7.769,12.024 2.91,3.63 6.182,6.749 9.812,9.357 3.63,2.609 7.656,4.631 12.08,6.069 4.424,1.435 9.318,2.155 14.688,2.155 H 25.635 L 19.51,29.037 h -36.07 c -1.587,0 -2.892,-0.492 -3.913,-1.475 -1.021,-0.983 -1.891,-2.154 -2.609,-3.515 -0.72,-1.361 -1.343,-2.779 -1.871,-4.254 -0.53,-1.475 -1.135,-2.704 -1.816,-3.687 0.681,0.076 1.493,0.132 2.44,0.171 0.944,0.037 2.475,0.057 4.594,0.057 2.191,0 5.234,-0.02 9.13,-0.057 3.894,-0.039 9.091,-0.056 15.596,-0.056 z" /></g><g
           transform="translate(279.5201,129.982)"
           id="g120"><path
             id="path122"
             style="fill:#1f6189;fill-opacity:1;fill-rule:nonzero;stroke:none"
             d="m 0,0 c 0.982,-1.21 2.003,-1.928 3.063,-2.154 6.426,-0.985 12.778,-1.248 19.055,-0.794 6.277,0.453 12.552,1.321 18.829,2.608 l -6.011,-20.983 c -8.394,-1.436 -16.447,-2.269 -24.161,-2.496 -7.712,-0.227 -15.464,0.227 -23.252,1.361 -6.654,0.831 -11.211,3.724 -13.668,8.677 -2.458,4.952 -2.551,11.74 -0.283,20.36 0.074,0.454 0.188,0.982 0.34,1.588 0.151,0.604 0.415,1.568 0.794,2.893 0.378,1.322 0.889,3.156 1.531,5.501 0.642,2.342 1.55,5.501 2.723,9.47 1.172,3.971 2.665,8.885 4.48,14.746 1.815,5.859 4.007,12.949 6.579,21.267 H 15.313 L 1.021,14.746 C 0.642,12.778 0.208,10.89 -0.283,9.074 -0.775,7.26 -1.097,5.369 -1.247,3.403 -1.399,2.344 -0.983,1.209 0,0" /></g><g
           transform="translate(409.2809,148.8111)"
           id="g124"><path
             id="path126"
             style="fill:#1f6189;fill-opacity:1;fill-rule:nonzero;stroke:none"
             d="m 0,0 c 2.115,0 3.856,0.15 5.217,0.454 1.361,0.301 2.513,0.718 3.46,1.247 0.944,0.528 1.738,1.153 2.382,1.872 0.641,0.718 1.304,1.455 1.985,2.212 1.738,1.889 3.08,4.007 4.026,6.352 0.945,2.342 1.418,4.838 1.418,7.486 0,0.907 -0.17,1.852 -0.51,2.835 -0.34,0.982 -0.814,1.872 -1.418,2.666 -0.606,0.794 -1.324,1.436 -2.156,1.928 -0.833,0.491 -1.777,0.737 -2.835,0.737 H -4.197 L -12.704,0 Z M -17.809,-17.354 -25.181,-41.4 h -25.294 l 25.521,84.502 h 42.988 c 3.63,0 7.127,-0.53 10.492,-1.588 3.364,-1.06 6.332,-2.874 8.904,-5.445 1.512,-1.588 2.683,-3.441 3.516,-5.557 0.831,-2.118 1.248,-4.311 1.248,-6.579 0,-4.462 -0.643,-8.847 -1.928,-13.158 -1.287,-4.31 -3.139,-8.356 -5.558,-12.136 -1.361,-2.041 -2.875,-4.027 -4.537,-5.954 -1.664,-1.929 -3.479,-3.63 -5.444,-5.105 -1.968,-1.475 -4.066,-2.666 -6.295,-3.573 -2.232,-0.907 -4.557,-1.361 -6.976,-1.361 z" /></g></g></g><g
       id="g128"><g
         clip-path="url(#clipPath134)"
         id="g130"><g
           transform="translate(412.813,467.0665)"
           id="g136"><path
             id="path138"
             style="fill:#1f6189;fill-opacity:1;fill-rule:nonzero;stroke:none"
             d="m 0,0 c -2.827,0.17 -5.653,0.34 -8.48,0.511 -0.565,0.035 -1.131,0.079 -1.697,0.108 -5.884,0.306 -11.772,0.565 -17.654,0.929 -4.749,0.293 -9.491,0.711 -14.236,1.079 -3.276,0.255 -6.55,0.529 -9.827,0.779 -4.067,0.31 -8.138,0.578 -12.203,0.913 -3.84,0.315 -7.673,0.701 -11.51,1.042 -2.934,0.26 -5.87,0.513 -8.806,0.744 -3.954,0.312 -7.911,0.588 -11.864,0.899 -4.293,0.337 -8.578,0.805 -12.876,1.017 -5.432,0.269 -10.873,0.409 -16.312,0.466 -3.624,0.038 -7.257,-0.069 -10.876,-0.29 -3.729,-0.227 -7.447,-0.656 -11.167,-1.022 -3.609,-0.356 -7.187,-0.923 -10.767,-1.506 -7.833,-1.276 -15.562,-3.017 -23.199,-5.156 -22.17,-6.208 -43.022,-15.456 -62.739,-27.304 -1.262,-0.758 -2.525,-1.513 -3.792,-2.262 -0.37,-0.219 -0.938,0.172 -0.918,0.629 0.224,5.106 0.875,10.159 1.967,15.149 3.687,16.854 11.232,31.762 22.8,44.567 13.361,14.789 29.734,24.627 49.099,29.433 7.401,1.836 14.912,2.741 22.544,2.773 5.795,0.024 11.546,-0.486 17.297,-1.072 0.676,-0.069 1.35,-0.174 2.028,-0.218 4.75,-0.309 9.5,-0.606 14.25,-0.907 5.655,-0.358 11.31,-0.715 16.965,-1.073 0.34,-0.022 0.678,-0.055 1.018,-0.072 6.226,-0.304 12.453,-0.591 18.678,-0.912 6.565,-0.339 13.127,-0.708 19.691,-1.064 0.226,-0.013 0.452,-0.032 0.679,-0.042 6.906,-0.319 13.818,-0.543 20.717,-0.978 9.395,-0.593 18.804,-0.633 28.206,-0.946 7.932,-0.264 15.867,-0.186 23.799,0.13 2.038,0.081 4.078,0.138 6.118,0.185 6.348,0.147 12.67,0.698 18.996,1.201 5.087,0.405 10.149,1.004 15.203,1.668 5.84,0.766 11.649,1.748 17.422,2.923 7.549,1.537 15.034,3.335 22.401,5.601 0.428,0.131 0.886,0.165 1.331,0.236 0.258,0.041 0.608,-0.422 0.529,-0.694 C 92.72,67.14 92.658,66.806 92.551,66.487 89.775,58.163 86.008,50.313 81.038,43.082 66.686,22.205 47.187,8.74 22.568,2.723 15.16,0.912 7.637,0.036 0,0" /></g><g
           transform="translate(332.0029,277.8899)"
           id="g140"><path
             id="path142"
             style="fill:#1f6189;fill-opacity:1;fill-rule:nonzero;stroke:none"
             d="m 0,0 c -4.529,0.223 -9.062,0.401 -13.588,0.681 -4.864,0.302 -9.722,0.703 -14.584,1.055 -4.07,0.295 -8.142,0.561 -12.21,0.878 -4.407,0.343 -8.811,0.729 -13.216,1.101 -2.936,0.247 -5.871,0.512 -8.808,0.749 -3.842,0.31 -7.686,0.585 -11.527,0.902 -4.066,0.336 -8.13,0.705 -12.195,1.06 -0.564,0.049 -1.128,0.111 -1.693,0.153 -5.765,0.428 -11.529,0.885 -17.298,1.265 -2.487,0.164 -4.985,0.22 -7.478,0.228 -4.308,0.014 -8.62,0.039 -12.925,-0.104 -4.416,-0.146 -8.821,-0.536 -13.217,-1.029 -3.717,-0.418 -7.419,-0.917 -11.115,-1.499 -8.853,-1.395 -17.57,-3.39 -26.175,-5.874 -21.905,-6.321 -42.503,-15.608 -61.972,-27.437 -0.965,-0.587 -1.966,-1.114 -2.955,-1.659 -0.245,-0.135 -0.689,0.204 -0.684,0.509 0.011,0.566 0.002,1.134 0.047,1.698 1.593,20.108 8.461,38.191 21.127,53.922 13.978,17.363 31.864,28.686 53.569,33.919 9.217,2.222 18.565,2.976 28.014,2.465 3.392,-0.184 6.771,-0.616 10.156,-0.937 0.452,-0.042 0.901,-0.109 1.353,-0.138 4.526,-0.292 9.051,-0.577 13.577,-0.869 5.317,-0.342 10.633,-0.688 15.95,-1.034 0.453,-0.029 0.905,-0.074 1.357,-0.096 6.115,-0.305 12.23,-0.595 18.344,-0.912 6.454,-0.335 12.906,-0.695 19.358,-1.045 0.34,-0.019 0.679,-0.048 1.019,-0.064 6.795,-0.316 13.589,-0.646 20.386,-0.943 8.041,-0.351 16.083,-0.727 24.128,-0.988 5.439,-0.177 10.883,-0.175 16.325,-0.25 9.87,-0.136 19.73,0.25 29.578,0.798 6.447,0.358 12.885,0.917 19.305,1.693 6.303,0.762 12.579,1.658 18.83,2.765 9.27,1.642 18.402,3.848 27.432,6.497 0.431,0.127 0.867,0.235 1.304,0.341 0.336,0.082 0.739,-0.256 0.656,-0.549 C 99.959,66.491 99.766,65.721 99.506,64.974 87.692,31.158 59.893,9.538 30.713,2.485 21.49,0.255 12.17,-0.553 2.717,-0.161 1.812,-0.123 0.905,-0.156 -0.001,-0.156 -0.001,-0.104 0,-0.052 0,0" /></g><g
           transform="translate(367.3632,372.2388)"
           id="g144"><path
             id="path146"
             style="fill:#1f6189;fill-opacity:1;fill-rule:nonzero;stroke:none"
             d="m 0,0 c -6.786,0.435 -13.571,0.867 -20.357,1.306 -4.523,0.293 -9.048,0.567 -13.569,0.904 -4.294,0.32 -8.582,0.71 -12.873,1.07 -2.936,0.246 -5.871,0.501 -8.808,0.735 -3.841,0.307 -7.684,0.58 -11.524,0.9 -4.065,0.338 -8.127,0.72 -12.191,1.07 -3.274,0.283 -6.547,0.576 -9.825,0.812 -4.747,0.343 -9.505,0.563 -14.246,0.974 -5.886,0.51 -11.777,0.532 -17.67,0.398 -5.211,-0.119 -10.411,-0.496 -15.599,-1.041 -3.833,-0.403 -7.648,-0.905 -11.457,-1.484 -7.286,-1.107 -14.483,-2.635 -21.606,-4.505 -23.95,-6.287 -46.374,-16.144 -67.525,-28.963 -0.967,-0.586 -1.958,-1.131 -2.944,-1.687 -0.242,-0.137 -0.687,0.19 -0.662,0.494 0.216,2.595 0.329,5.205 0.68,7.782 1.337,9.83 4.052,19.269 8.259,28.265 11.701,25.025 34.517,45.852 65.056,53.394 5.062,1.25 10.216,1.977 15.424,2.444 7.504,0.673 14.94,0.115 22.39,-0.64 3.72,-0.376 7.456,-0.598 11.187,-0.851 6.106,-0.414 12.214,-0.795 18.321,-1.19 0.34,-0.022 0.679,-0.047 1.019,-0.063 6.226,-0.31 12.453,-0.604 18.678,-0.931 6.225,-0.327 12.449,-0.686 18.673,-1.031 0.339,-0.019 0.679,-0.045 1.018,-0.061 6.794,-0.315 13.587,-0.629 20.381,-0.943 7.359,-0.34 14.718,-0.696 22.079,-1.011 2.831,-0.121 5.666,-0.195 8.499,-0.211 7.935,-0.046 15.871,-0.093 23.805,-0.059 8.505,0.037 16.989,0.547 25.47,1.172 5.541,0.408 11.065,0.96 16.573,1.654 7.305,0.92 14.57,2.119 21.781,3.63 6.876,1.441 13.68,3.16 20.419,5.144 0.54,0.159 1.085,0.313 1.64,0.398 0.134,0.02 0.44,-0.237 0.445,-0.375 0.013,-0.325 -0.079,-0.665 -0.181,-0.981 C 97.442,56.293 92.551,46.875 86.013,38.35 71.83,19.855 53.34,7.904 30.73,2.348 25.335,1.022 19.84,0.278 14.275,-0.055 9.504,-0.34 4.76,-0.182 0,0" /></g></g></g></g></svg>